<?xml version="1.0" encoding="UTF-8" standalone="no"?>
<svg width="273px" height="273px" viewBox="0 0 273 273" version="1.1" xmlns="http://www.w3.org/2000/svg" xmlns:xlink="http://www.w3.org/1999/xlink">
    <!-- Generator: Sketch 46.2 (44496) - http://www.bohemiancoding.com/sketch -->
    <title>Combined Shape</title>
    <desc>Created with Sketch.</desc>
    <defs></defs>
    <g id="Brand" stroke="none" stroke-width="1" fill="none" fill-rule="evenodd">
        <path d="M20,0 L252.5,0 C263.545695,-2.02906125e-15 272.5,8.954305 272.5,20 L272.5,252.5 C272.5,263.545695 263.545695,272.5 252.5,272.5 L20,272.5 C8.954305,272.5 1.3527075e-15,263.545695 0,252.5 L0,20 L0,20 C-1.3527075e-15,8.954305 8.954305,2.02906125e-15 20,0 L20,0 Z M55.6455077,197.865232 L78.2958002,197.865232 C80.5702386,197.865232 82.4140352,196.021435 82.4140352,193.746997 L82.4140352,78.4364168 C82.4140352,76.1619784 80.5702386,74.3181818 78.2958002,74.3181818 L55.6455077,74.3181818 C53.3710693,74.3181818 51.5272727,76.1619784 51.5272727,78.4364168 L51.5272727,193.746997 C51.5272727,196.021435 53.3710693,197.865232 55.6455077,197.865232 Z M102.070338,197.865232 L124.720631,197.865232 C126.995069,197.865232 128.838866,196.021435 128.838866,193.746997 L128.838866,78.4364168 C128.838866,76.1619784 126.995069,74.3181818 124.720631,74.3181818 L102.070338,74.3181818 C99.7958997,74.3181818 97.9521031,76.1619784 97.9521031,78.4364168 L97.9521031,193.746997 C97.9521031,196.021435 99.7958997,197.865232 102.070338,197.865232 Z M171.145461,197.865232 C173.419899,197.865232 175.263696,196.021435 175.263696,193.746997 L175.263696,78.4364168 C175.263696,76.1619784 173.419899,74.3181818 171.145461,74.3181818 L148.495169,74.3181818 C146.22073,74.3181818 144.376934,76.1619784 144.376934,78.4364168 L144.376934,193.746997 C144.376934,196.021435 146.22073,197.865232 148.495169,197.865232 L171.145461,197.865232 Z M221.688526,78.4364168 C221.688526,76.1619784 219.84473,74.3181818 217.570291,74.3181818 L194.919999,74.3181818 C192.645561,74.3181818 190.801764,76.1619784 190.801764,78.4364168 L190.801764,101.086709 C190.801764,103.361148 192.645561,105.204944 194.919999,105.204944 L217.570291,105.204944 C219.84473,105.204944 221.688526,103.361148 221.688526,101.086709 L221.688526,78.4364168 Z M221.688526,125.497204 C221.688526,123.222765 219.84473,121.378969 217.570291,121.378969 L194.919999,121.378969 C192.645561,121.378969 190.801764,123.222765 190.801764,125.497204 L190.801764,148.147496 C190.801764,150.421935 192.645561,152.265731 194.919999,152.265731 L217.570291,152.265731 C219.84473,152.265731 221.688526,150.421935 221.688526,148.147496 L221.688526,125.497204 Z" id="Combined-Shape" fill="#FED766"></path>
    </g>
</svg>